<svg width="45" height="44" viewBox="0 0 45 44" fill="none" xmlns="http://www.w3.org/2000/svg">
<path d="M43.4363 39.6175L35.1742 31.425C37.8399 28.0476 39.2863 23.8769 39.2809 19.5833C39.2809 15.7596 38.1408 12.0217 36.0047 8.84232C33.8685 5.66297 30.8324 3.18497 27.2801 1.72167C23.7279 0.258377 19.8191 -0.124488 16.0481 0.621493C12.277 1.36747 8.81309 3.2088 6.09432 5.91261C3.37555 8.61643 1.52405 12.0613 0.773939 15.8116C0.0238316 19.5619 0.408814 23.4492 1.8802 26.9819C3.35159 30.5146 5.8433 33.534 9.04023 35.6584C12.2372 37.7828 15.9957 38.9167 19.8407 38.9167C24.158 38.922 28.3517 37.4836 31.7478 34.8325L39.9856 43.0492C40.2116 43.2757 40.4803 43.4555 40.7764 43.5782C41.0726 43.7009 41.3902 43.764 41.711 43.764C42.0318 43.764 42.3494 43.7009 42.6455 43.5782C42.9416 43.4555 43.2104 43.2757 43.4363 43.0492C43.6641 42.8245 43.8448 42.5572 43.9682 42.2627C44.0916 41.9682 44.1551 41.6524 44.1551 41.3333C44.1551 41.0143 44.0916 40.6984 43.9682 40.4039C43.8448 40.1095 43.6641 39.8422 43.4363 39.6175ZM5.26047 19.5833C5.26047 16.7155 6.11558 13.9121 7.71767 11.5276C9.31977 9.14306 11.5969 7.28456 14.2611 6.18709C16.9252 5.08962 19.8568 4.80247 22.6851 5.36196C25.5134 5.92144 28.1113 7.30243 30.1504 9.33029C32.1895 11.3582 33.5781 13.9418 34.1407 16.7545C34.7033 19.5673 34.4146 22.4827 33.311 25.1323C32.2075 27.7818 30.3387 30.0464 27.941 31.6397C25.5433 33.2329 22.7244 34.0833 19.8407 34.0833C15.9738 34.0833 12.2652 32.5557 9.53091 29.8364C6.79659 27.1171 5.26047 23.429 5.26047 19.5833Z" fill="#B0B0B0"/>
</svg>
